<?xml version="1.0" encoding="UTF-8" standalone="no"?>
<svg width="100%" height="100%" viewBox="0 0 9759 6409" version="1.1" xmlns="http://www.w3.org/2000/svg" style="fill-rule:evenodd;clip-rule:evenodd;stroke-linejoin:round;stroke-miterlimit:2;">
  <g>
    <path d="M3250.83,6408.32l1749.6,-0l436.453,-1355.64l-1745.59,-0l-440.469,1355.64Z" style="fill:#ffffff;fill-rule:nonzero;"/>
    <path d="M6622.02,3037.17l2674.47,0l462.263,-1429.88l-2930.49,0c-220.235,0 -427.277,16.403 -621.704,49.209c-61.597,151.102 -136.498,300.333 -223.446,445.252l-2.408,3.773c-211.861,339.047 -494.38,602.548 -839.643,783.232c-232.393,121.53 -498.74,202.203 -795.941,241.455c-10.438,23.124 -96.812,228.55 -127.094,312.159l-1963.41,-0l78.573,-241.719c37.852,-113.73 99.448,-189.551 184.675,-227.461c85.455,-38.185 192.246,-57.008 320.258,-57.008l1066.88,0c206.24,0 397.912,-17.745 575.361,-53.235c201.423,-39.792 384.263,-102.982 548.292,-188.747c308.099,-161.058 557.124,-393.371 746.962,-696.939c50.815,-84.423 96.467,-169.924 137.646,-256.241c51.618,-107.547 95.664,-216.437 132.599,-326.944c66.3,-199.243 99.679,-393.646 99.679,-583.197c0,-289.31 -114.017,-496.892 -341.478,-622.449c-227.69,-125.568 -576.165,-188.484 -1045.65,-188.484l-3065.5,0l-448.165,1379.87l2759.71,0c113.789,0 170.797,26.084 170.797,78.241c-0,94.919 -33.38,180.156 -99.45,255.976c-99.793,123.412 -242.028,184.985 -426.704,184.985l-1173.66,0c-559.534,0 -993.533,116.151 -1301.94,348.464c-308.132,232.313 -538.025,583.196 -689.666,1052.65l-483.712,1500.87l8725.5,0l442.992,-1358.64l-3208.08,-0c94.976,-270.212 315.439,-405.197 661.506,-405.197Z" style="fill:#ffffff;fill-rule:nonzero;"/>
  </g>
</svg>
