<svg xmlns="http://www.w3.org/2000/svg" xmlns:xlink="http://www.w3.org/1999/xlink" width="4000" zoomAndPan="magnify" viewBox="0 0 3000 570" height="760" preserveAspectRatio="xMidYMid meet" version="1.0"><defs><g/></defs><g fill="#000000" fill-opacity="1"><g transform="translate(-27.774776, 562.98721)"><g><path d="M 612.328125 0 L 664.1875 -159.78125 L 294.453125 -159.78125 L 303.65625 -188.21875 C 312.03125 -214.984375 332.9375 -221.6875 363.046875 -221.6875 L 488.53125 -221.6875 C 592.25 -221.6875 664.1875 -260.15625 708.53125 -332.109375 C 735.296875 -376.4375 752.03125 -424.953125 752.03125 -469.296875 C 752.03125 -537.03125 699.328125 -564.640625 588.90625 -564.640625 L 228.375 -564.640625 L 175.671875 -402.375 L 500.25 -402.375 C 515.28125 -402.375 520.3125 -400.703125 520.3125 -393.171875 C 520.3125 -381.453125 515.28125 -370.578125 508.609375 -363.046875 C 497.734375 -349.671875 478.5 -341.3125 458.421875 -341.3125 L 320.390625 -341.3125 C 189.0625 -341.3125 122.140625 -286.9375 86.15625 -176.515625 L 29.28125 0 Z M 612.328125 0 "/></g></g></g><g fill="#000000" fill-opacity="1"><g transform="translate(602.133992, 562.98721)"><g><path d="M 617.34375 0 L 800.546875 -564.640625 L 594.765625 -564.640625 L 511.125 -307.84375 L 378.109375 -307.84375 C 354.6875 -307.84375 346.328125 -310.359375 346.328125 -321.234375 C 346.328125 -327.078125 349.671875 -336.28125 353.859375 -349.671875 L 423.28125 -564.640625 L 218.328125 -564.640625 L 132.171875 -299.484375 C 123.8125 -273.546875 119.625 -251.796875 119.625 -233.390625 C 119.625 -171.484375 166.46875 -146.390625 271.875 -146.390625 L 458.421875 -146.390625 L 411.578125 0 Z M 617.34375 0 "/></g></g></g><g fill="#000000" fill-opacity="1"><g transform="translate(1252.119548, 562.98721)"><g><path d="M 679.25 -197.421875 L 728.609375 -348.828125 L 351.34375 -348.828125 C 363.046875 -381.453125 389.828125 -396.515625 429.140625 -396.515625 L 743.65625 -396.515625 L 798.03125 -564.640625 L 453.40625 -564.640625 C 293.625 -564.640625 194.078125 -496.90625 139.703125 -329.59375 L 32.625 0 L 238.40625 0 L 301.984375 -197.421875 Z M 679.25 -197.421875 "/></g></g></g><g fill="#000000" fill-opacity="1"><g transform="translate(1885.374468, 562.98721)"><g><path d="M 238.40625 0 L 421.609375 -564.640625 L 215.828125 -564.640625 L 32.625 0 Z M 238.40625 0 "/></g></g></g><g fill="#000000" fill-opacity="1"><g transform="translate(2155.574343, 562.98721)"><g><path d="M 439.171875 0 L 567.984375 -399.03125 L 788.828125 -399.03125 L 843.203125 -564.640625 L 194.90625 -564.640625 L 140.53125 -399.03125 L 361.375 -399.03125 L 232.5625 0 Z M 439.171875 0 "/></g></g></g></svg>